# xmcd CD database file
#
# Track frame offsets:
#	150
#	11400
#	41557
#	73626
#	97657
#	119013
#	129628
#	156708
#	183854
#	204772
#	233127
#	250943
#	275139
#	303223
#	328146
#
# Disc length: 4553 seconds
#
# Revision: 0
# Processed by: cddbd v1.5.2PL0 Copyright (c) Steve Scherf et al.
# Submitted via: CDex 1.70beta2
#
DISCID=d011c70f
DTITLE=Lutz Häfner and Rainer Böhm - Deep
DYEAR=2012
DGENRE=Jazz
TTITLE0=The Nearness Of You
TTITLE1=The Peacocks
TTITLE2=The Thrill Is Gone
TTITLE3=Retrato Em Branco E Preto
TTITLE4=Love Theme From Spartacus
TTITLE5=I Loves You Porgy
TTITLE6=Everytime We Say Goodbye I Die A Little
TTITLE7=Esta Tarde Vi Llover
TTITLE8=I Should Care
TTITLE9=With Every Breath I Take
TTITLE10=You Know I Care
TTITLE11=You Must Believe In Spring
TTITLE12=Spring Can Really Hang You Up The Most
TTITLE13=Crescent
TTITLE14=Comes Love
EXTD=YEAR: 2012
EXTT0=
EXTT1=
EXTT2=
EXTT3=
EXTT4=
EXTT5=
EXTT6=
EXTT7=
EXTT8=
EXTT9=
EXTT10=
EXTT11=
EXTT12=
EXTT13=
EXTT14=
PLAYORDER=
